<svg xmlns="http://www.w3.org/2000/svg" viewBox="0 0 24 24" fill="none" stroke="#22c55e" stroke-width="2" stroke-linecap="round" stroke-linejoin="round">
  <circle cx="12" cy="12" r="3" fill="#16a34a" />
  <path d="M12 2a3 3 0 0 0-3 3 3 3 0 0 0 3 3 3 3 0 0 0 3-3 3 3 0 0 0-3-3z" fill="#4ade80" fill-opacity="0.4" />
  <path d="M12 16a3 3 0 0 0-3 3 3 3 0 0 0 3 3 3 3 0 0 0 3-3 3 3 0 0 0-3-3z" fill="#4ade80" fill-opacity="0.4" />
  <path d="M16 12a3 3 0 0 0 3-3 3 3 0 0 0 3 3 3 3 0 0 0-3 3 3 3 0 0 0-3-3z" fill="#4ade80" fill-opacity="0.4" />
  <path d="M2 12a3 3 0 0 0 3-3 3 3 0 0 0 3 3 3 3 0 0 0-3 3 3 3 0 0 0-3-3z" fill="#4ade80" fill-opacity="0.4" />
</svg>